<mxfile host="app.diagrams.net" modified="2023-10-11T02:17:44.003Z" agent="Mozilla/5.0 (Windows NT 10.0; Win64; x64) AppleWebKit/537.36 (KHTML, like Gecko) Chrome/117.0.0.0 Safari/537.36" version="21.5.1" etag="Qu5TN45-mAZBOOUNc6cV" type="github">
  <diagram name="第 1 页" id="qlkqnO7MAIp1R2k0885a">
    <mxGraphModel>
      <root>
        <mxCell id="0" />
        <mxCell id="1" parent="0" />
      </root>
    </mxGraphModel>
  </diagram>
</mxfile>
